<svg xmlns:xlink="http://www.w3.org/1999/xlink" width="59" height="32" viewBox="0 0 97 52" fill="none" xmlns="http://www.w3.org/2000/svg">
              <path d="M31.886 12.3402C18.8055 9.19885 9.6644 16.6637 4.04169 8.26996C4.02484 8.23621 4.008 8.21931 3.99118 8.18553C3.83964 7.94907 4.04169 7.61131 4.31102 7.67887C15.8932 10.4486 17.7786 8.72597 22.6438 9.31709C27.1386 9.85753 31.886 12.3402 31.886 12.3402Z" fill="#FFFFFF"></path>
              <path d="M34.1926 14.4519C22.6777 12.7461 14.5129 21.3763 8.3515 14.739C8.33466 14.7221 8.31785 14.6883 8.28416 14.6715C8.11583 14.4857 8.23365 14.1479 8.48617 14.1648C19.0077 14.9417 21.4824 13.0839 25.8089 12.8981C29.8492 12.7293 34.1926 14.4519 34.1926 14.4519Z" fill="#FFFFFF"></path>
              <path d="M36.3301 17.1709C26.2798 15.8029 21.9702 24.8552 13.8223 19.3158C13.8054 19.2989 13.7886 19.282 13.7549 19.2482C13.5866 19.0962 13.6371 18.6571 13.8728 18.6571C22.7782 18.674 25.1014 16.5967 28.8555 16.1407C33.9396 15.5327 36.3301 17.1709 36.3301 17.1709Z" fill="#FFFFFF"></path>
              <path d="M40.8588 20.1597C35.6066 20.7171 36.4313 24.9394 30.6741 23.9935C29.9162 23.8753 30.0847 23.3348 30.4216 23.2335C35.2528 21.8486 35.2528 20.9198 36.987 20.2273C38.6368 19.6024 40.8588 20.1597 40.8588 20.1597Z" fill="#FFFFFF"></path>
              <path d="M38.4855 18.8593C30.91 19.0113 28.9739 24.4663 22.5936 22.6931C21.6172 22.4229 21.9539 21.6798 22.4758 21.6122C29.7821 20.4469 30.1356 19.366 32.8457 18.7242C35.3878 18.1162 38.4855 18.8593 38.4855 18.8593Z" fill="#FFFFFF"></path>
              <path d="M34.1584 12.3239C34.1078 12.4083 33.99 12.4252 33.9059 12.3914C32.3402 11.4963 30.8757 10.4492 29.1922 9.30077C27.6099 8.23677 24.2092 6.78432 17.1387 7.12211C13.7718 7.29098 8.65411 7.98344 3.36808 4.35232C2.08865 3.49099 0.792379 2.02167 0.119009 0.653676C0.0516704 0.535464 0.0180027 0.383442 0.00116726 0.23145C-0.0156652 0.0794574 0.152677 -0.0387557 0.30419 0.0118983C13.3846 5.28121 17.1219 3.22079 25.354 5.12922C28.7378 5.92299 32.9296 10.8545 34.1416 12.0874C34.2088 12.1381 34.2088 12.2394 34.1584 12.3239Z" fill="#FFFFFF"></path>
              <path d="M45.5391 41.2036C45.3875 41.6763 45.4213 42.2338 45.1182 42.6391C44.7478 43.1797 43.8387 43.2303 43.4012 42.7403C43.1149 42.4872 43.1149 42.0819 43.014 41.761C42.3574 38.873 41.7176 35.9851 41.0779 33.0799C41.0107 32.8774 41.0779 32.7421 41.2801 32.6578C41.5998 32.5734 41.6336 32.9281 41.7345 33.1309C42.4583 35.1067 43.1318 37.0997 43.8725 39.0755C44.1081 39.7511 44.8994 39.5315 45.4213 39.7005C45.977 40.0552 45.6401 40.7139 45.5391 41.2036Z" fill="#FFFFFF"></path>
              <path d="M46.3972 33.2323C46.4647 33.4179 46.3634 33.6375 46.1615 33.6713C46.0437 33.6882 45.9428 33.6713 45.909 33.5026C45.4209 32.5229 44.9999 31.4927 44.4949 30.513C43.8383 29.9559 43.1482 29.3815 42.7441 28.5878C42.0203 27.3041 42.0875 25.6324 42.8957 24.3993C42.9629 24.3149 43.0135 24.2137 43.0807 24.129C43.1985 23.9603 43.4511 23.994 43.5186 24.1968C43.5692 24.3487 43.6026 24.5005 43.6701 24.6358C44.5792 27.4901 45.4546 30.378 46.3972 33.2323Z" fill="#FFFFFF"></path>
              <path d="M46.5322 19.6361C46.4985 20.3961 46.2125 21.1055 46.0272 21.8317C46.0103 21.8824 45.9934 21.9161 45.9431 21.933C45.8253 21.9837 45.7075 21.8992 45.7075 21.781C45.7243 20.7846 46.0778 19.805 45.8253 18.8255C45.4549 17.4913 44.5458 16.3259 44.4783 14.9073C44.4449 14.1642 44.6299 13.4379 44.7815 12.7117C44.2427 11.5802 43.9902 10.2797 44.2764 9.04684C44.3271 8.89484 44.3436 8.89484 44.428 9.01306C44.9499 9.77305 45.64 10.533 45.64 11.5295C45.5728 12.9482 44.7983 14.3668 45.3203 15.7855C45.7409 17.0522 46.65 18.2344 46.5322 19.6361Z" fill="#FFFFFF"></path>
              <path d="M50.9761 14.7388C50.9423 16.5966 49.3263 18.0828 49.5116 19.9744C49.5116 20.7006 49.6966 21.4437 49.6126 22.1699C49.4947 22.8117 48.7706 22.913 48.249 23.065C47.9459 23.2001 47.6093 22.8455 47.6934 22.5415C47.6934 20.3459 47.6934 18.1335 47.6934 15.9379C47.7271 15.0259 47.9459 14.0633 48.5687 13.3708C48.956 12.9148 49.36 12.4588 49.7807 12.0028C49.8651 11.9015 49.9154 11.7833 49.8985 11.665C49.8651 11.2597 49.7807 10.9051 49.966 10.4322C50.2523 9.84105 50.6226 9.48638 51.0098 9.09794C51.077 9.03041 51.178 9.06416 51.1949 9.14862C51.4643 10.3477 51.1949 11.6482 50.6395 12.7291C50.7742 13.3708 50.9761 14.0464 50.9761 14.7388Z" fill="#FFFFFF"></path>
              <path d="M72.2386 7.94966C69.9491 8.59143 68.8884 9.36833 67.9795 10.0945C67.9795 10.0945 70.05 9.36833 73.0299 9.04744C81.4807 8.11855 81.9689 11.2768 91.4298 7.61189C91.7499 7.56124 91.8339 7.81457 91.7499 7.94966C90.4873 10.1452 89.09 12.5772 83.8037 12.7968C78.0465 13.0332 75.05 10.7194 69.6459 11.4119C66.1951 11.851 64.4106 12.9319 63.4174 13.5905C75.2013 11.3274 74.225 16.5292 85.7735 13.7594C85.9082 13.7257 86.0598 13.6919 86.1945 13.7088C86.4973 13.7425 86.6152 14.1141 86.4301 14.3168C86.3458 14.4181 86.2279 14.5194 86.1439 14.6208C84.6288 16.259 83.0296 18.0492 77.6424 17.6439C71.3126 17.171 70.9085 13.2359 58.8215 16.2421C70.5382 16.1914 70.3363 20.0421 79.1575 18.8936C79.4606 18.8598 79.6456 19.2314 79.41 19.4341C79.2753 19.5523 79.1237 19.6536 79.0059 19.755C77.6761 20.8021 75.7401 22.0856 72.1039 21.3425C64.5284 19.755 65.4878 16.6137 55.7406 18.3363C63.333 18.539 62.8111 21.4945 70.6057 22.2207C70.6057 22.2207 70.6057 22.2207 70.6225 22.2207C71.0432 22.2714 71.161 22.8287 70.8076 23.0652C70.5382 23.251 70.2353 23.3861 69.9491 23.5043C64.259 25.7168 61.616 18.5559 54.6296 20.1603C59.6296 20.5994 59.2255 22.2883 63.7371 23.5212C64.2252 23.6563 64.1749 24.315 63.6361 24.3656C58.2827 24.9062 58.754 21.2918 55.4712 21.1568C54.5959 21.123 53.788 21.5959 53.3502 22.3728C52.0538 24.6359 52.5757 26.7808 52.4917 27.946C52.7948 29.1622 53.2492 30.3443 53.2661 31.6277C53.283 32.523 53.1986 33.452 52.9126 34.3132C52.3738 36.1034 51.8351 37.8936 51.2797 39.7007C51.1619 40.0722 51.1785 40.4775 51.3131 40.8322C51.5153 41.3728 51.7172 41.8962 51.8013 42.4705C52.0035 43.433 51.8688 44.4295 51.5322 45.3585C50.825 47.0981 50.1181 48.8377 49.4108 50.5939C49.2761 50.9148 49.1752 51.2526 48.9396 51.5229C48.5861 51.5904 48.6198 51.1345 48.6533 50.9148C49.3436 44.4126 50.0002 37.9105 50.6734 31.4083L51.2122 29.8544C50.1518 30.7665 49.6802 32.0333 48.9902 33.1648C48.9058 33.4348 48.502 33.4857 48.4176 33.1817C48.4851 32.0502 48.6364 30.9184 48.6702 29.7869C48.7711 28.6385 48.7545 27.4732 49.1414 26.3755C49.5793 25.2608 50.4209 24.3656 51.0775 23.4029C52.1551 22.0181 52.9629 20.4474 53.5186 18.7923C53.8552 17.779 54.5624 16.8839 55.4712 16.3265C58.6196 14.3337 60.4544 12.611 63.4339 10.3479C66.1782 8.27055 68.2993 6.64923 69.5112 6.15944C75.05 3.87947 86.1776 6.32834 95.7057 0.113235C95.9414 -0.0218527 96.2445 0.248352 96.0592 0.6368C95.1673 2.8999 94.1066 4.35235 91.5814 5.60213C84.3087 9.19943 75.9588 6.90256 72.2386 7.94966Z" fill="#FFFFFF"></path>
              <path d="M50.1514 11.851C50.1514 11.851 49.5285 10.7532 48.0134 10.6181C46.8687 10.5168 46.3471 10.9052 46.3471 10.9052C46.3471 10.9052 47.7275 10.4999 48.8047 11.4625C49.8823 12.4252 49.2929 13.2528 49.2929 13.2528C49.2929 13.2528 50.4714 12.5603 50.1514 11.851Z" fill="#FFFFFF"></path>
              <path d="M50.0838 11.6991C50.0838 11.6991 49.2925 10.8546 47.6764 10.787C47.6764 10.787 48.6359 11.0235 48.754 11.5471C48.9559 12.5435 48.0805 13.8777 47.9121 14.5195C47.7774 15.0937 50.0838 11.6991 50.0838 11.6991Z" fill="#FFFFFF"></path>
            </svg>