<svg xmlns:xlink="http://www.w3.org/1999/xlink" xmlns="http://www.w3.org/2000/svg" xmlns:v="https://vecta.io/nano" width="663" height="340" fill="none"><path d="M591.685 339.999c20.683.554 41.181-2.216 61.126-7.941 7.017-2.216 9.603-4.063 9.049-9.788v-57.437c0-5.725-2.216-8.495-7.387-8.495h-.739c-20.314 2.401-40.627 3.878-61.126 4.063-23.638 0-44.69-11.266-44.69-67.594v-45.801c0-56.697 21.052-67.409 44.69-67.409a562.84 562.84 0 0 1 61.126 3.878h1.293c4.801 0 7.387-2.585 7.387-8.495V17.729c0-6.279-2.586-7.572-9.603-9.788-19.76-5.725-40.443-8.495-61.126-7.941-80.147 0-134.256 44.693-134.256 147.192v45.801c0 102.314 54.109 147.007 134.256 147.007z" fill="#fff" fill-opacity=".1"/><path d="M591.698 339.499h-.013c-39.983 0-73.402-11.146-96.826-34.986s-36.93-60.449-36.93-111.521v-45.801c0-51.165 13.504-87.819 36.93-111.683S551.702.499 591.685.499h.013c20.628-.553 41.258 2.21 60.968 7.92 3.53 1.115 5.815 1.965 7.242 3.262 1.375 1.251 2.006 2.977 2.006 6.048V74.98c0 2.894-.635 4.874-1.765 6.13-1.12 1.245-2.809 1.866-5.122 1.866h-1.263c-20.322-2.401-40.645-3.693-61.151-3.878h-.005c-11.891 0-23.239 2.696-31.592 12.621-8.331 9.9-13.598 26.897-13.598 55.288v45.801c0 28.208 5.268 45.249 13.597 55.24 8.35 10.017 19.696 12.854 31.593 12.854h.005c20.509-.185 40.832-1.662 61.151-4.063h.709c2.498 0 4.179.667 5.252 1.925 1.087 1.276 1.635 3.257 1.635 6.07v57.437.024l.002.024c.269 2.777-.231 4.498-1.541 5.808-1.357 1.357-3.642 2.344-7.155 3.453-19.896 5.711-40.341 8.473-60.968 7.92z" stroke="#fff" stroke-opacity=".2"/><path d="M234.532 332.981c-19.575 3.139-74.422 7.017-93.259 7.017C57.063 339.998 0 318.391 0 209.982V12.557c0-1.108.185-2.216.739-3.324.369-1.108 1.108-2.031 1.847-2.77s1.847-1.477 2.77-1.847c1.108-.369 2.216-.554 3.324-.554h71.098c1.108 0 2.216.185 3.324.554s2.031 1.108 2.77 1.847 1.477 1.662 1.847 2.77.739 2.216.739 3.324v197.425c0 40.261 13.112 53.373 44.137 53.373a317.47 317.47 0 0 0 41.92-2.77V12.557c0-1.108.184-2.216.739-3.324.369-1.108 1.108-2.031 1.846-2.77s1.847-1.477 2.77-1.847c1.108-.369 2.216-.554 3.324-.554h70.729c2.216-.185 4.617.739 6.279 2.216 1.662 1.662 2.77 3.878 2.955 6.095V298.26c-.185 25.117-7.572 31.581-28.624 34.721z" fill="#fff" fill-opacity=".1"/><path d="M234.458 332.486l-.005.001c-19.545 3.135-74.366 7.011-93.18 7.011-42.088 0-77.259-5.406-101.911-24.252C14.742 296.425.5 264.104.5 209.982V12.557c0-1.05.174-2.077.686-3.101l.016-.032.011-.034c.334-1.002 1.011-1.86 1.726-2.575.69-.69 1.734-1.386 2.589-1.731 1.055-.35 2.105-.524 3.152-.524h71.098c1.052 0 2.106.175 3.166.528 1.002.334 1.86 1.011 2.575 1.726s1.392 1.573 1.726 2.575c.375 1.125.713 2.154.713 3.166v197.425c0 20.159 3.277 33.658 10.555 42.111 7.297 8.474 18.513 11.762 34.082 11.762a317.98 317.98 0 0 0 41.986-2.774l.434-.058v-.438V12.557c0-1.05.174-2.077.686-3.101l.016-.032.011-.034c.334-1.002 1.011-1.86 1.726-2.575.689-.69 1.734-1.386 2.588-1.731 1.056-.35 2.106-.524 3.152-.524h70.729.021l.021-.002c2.057-.171 4.32.688 5.894 2.082 1.578 1.583 2.619 3.679 2.798 5.752v285.864c-.092 12.535-1.987 20.271-6.363 25.276s-11.324 7.385-21.835 8.953z" stroke="#fff" stroke-opacity=".2"/><path d="M399.812 336.12h-71.467c-2.217 0-4.433-1.108-6.095-2.77s-2.4-3.878-2.4-6.279V12.557c0-1.108.184-2.216.738-3.324.37-1.108 1.108-2.032 1.847-2.77s1.662-1.477 2.77-1.847 2.216-.554 3.324-.554h71.468c1.108 0 2.216.185 3.324.554s2.031.923 2.77 1.847c.739.739 1.477 1.662 1.847 2.77s.738 2.216.738 3.324v314.514c0 1.108-.184 2.401-.554 3.509s-1.108 2.031-1.846 2.955-1.847 1.477-2.771 2.031c-1.292.185-2.585.554-3.693.554z" fill="#fff" fill-opacity=".1"/><path d="M321.036 9.456l.015-.032.012-.034c.334-1.002 1.011-1.86 1.726-2.575s1.573-1.392 2.574-1.726a9.96 9.96 0 0 1 3.166-.528h71.468a9.96 9.96 0 0 1 3.166.528c1.039.346 1.872.853 2.537 1.685l.018.022.019.02c.715.715 1.392 1.573 1.726 2.575.375 1.125.713 2.154.713 3.166v314.514a11.09 11.09 0 0 1-.528 3.351c-.336 1.009-1.014 1.864-1.763 2.8-.56.701-1.353 1.163-2.171 1.641l-.379.223-1.311.234-.526.101c-.619.115-1.181.199-1.686.199h-71.467c-2.054 0-4.149-1.032-5.741-2.624-1.549-1.549-2.254-3.628-2.254-5.925V12.557c0-1.05.174-2.077.686-3.101z" stroke="#fff" stroke-opacity=".2"/></svg>