<svg width="96" height="18" viewBox="0 0 96 18" fill="none" xmlns="http://www.w3.org/2000/svg">
<path d="M12.0265 4.23799C12.0265 1.89741 10.1291 0 7.78853 0C5.44795 0 3.55054 1.89741 3.55054 4.23799H12.0265Z" fill="#6EB974"/>
<path d="M0.0273838 4.23791L15.5765 4.23792L15.5765 7.7885L0.0273836 7.7885L0.0273838 4.23791Z" fill="white"/>
<path d="M3.55054 4.23808L3.55054 18L-4.64916e-05 18L-4.52885e-05 4.23808L3.55054 4.23808Z" fill="white"/>
<path d="M3.55054 4.23808L3.55054 18L-4.64916e-05 18L-4.52885e-05 4.23808L3.55054 4.23808Z" fill="white"/>
<path d="M15.577 4.23808L15.577 18L12.0264 18L12.0264 4.23808L15.577 4.23808Z" fill="white"/>
<path d="M0.0273838 14.4494L15.5765 14.4494L15.5765 18L0.0273836 18L0.0273838 14.4494Z" fill="white"/>
<path d="M36.9413 17.3664H32.2954L29.6406 13.6497L26.9194 17.3664H22.3621L27.2624 11.1608L22.4395 4.94418H27.0854L29.6959 8.59452L32.3175 4.94418H36.886L32.052 11.0613L36.9413 17.3664Z" fill="white"/>
<path d="M46.6313 14.1253V11.5369C46.0929 11.5812 45.5103 11.6438 44.8835 11.725C44.2567 11.7987 43.781 11.8872 43.4566 11.9904C43.0584 12.1158 42.7523 12.3002 42.5385 12.5435C42.332 12.7795 42.2287 13.0929 42.2287 13.4838C42.2287 13.7419 42.2509 13.952 42.2951 14.1143C42.3393 14.2765 42.45 14.4314 42.6269 14.5789C42.7966 14.7263 42.9994 14.837 43.2353 14.9107C43.4713 14.9771 43.84 15.0103 44.3415 15.0103C44.7397 15.0103 45.1416 14.9291 45.5472 14.7669C45.9602 14.6047 46.3215 14.3908 46.6313 14.1253ZM46.6313 16.05C46.4174 16.2123 46.1519 16.4077 45.8348 16.6363C45.5177 16.8649 45.2191 17.0456 44.9388 17.1783C44.548 17.3553 44.1424 17.4844 43.722 17.5655C43.3017 17.654 42.8408 17.6982 42.3393 17.6982C41.1594 17.6982 40.1713 17.3332 39.3748 16.6031C38.5784 15.8731 38.1802 14.9402 38.1802 13.8045C38.1802 12.8975 38.383 12.1564 38.7886 11.5812C39.1942 11.006 39.7694 10.5524 40.5142 10.2206C41.2516 9.88873 42.166 9.65275 43.2575 9.51263C44.3489 9.37252 45.4808 9.26928 46.6534 9.20291V9.13654C46.6534 8.45072 46.3731 7.97875 45.8127 7.72065C45.2522 7.45517 44.4263 7.32243 43.3349 7.32243C42.6786 7.32243 41.978 7.44042 41.2332 7.6764C40.4884 7.90501 39.9537 8.082 39.6292 8.20736H39.2642V5.20966C39.6846 5.09904 40.3667 4.96999 41.3106 4.8225C42.2619 4.66764 43.2132 4.59021 44.1645 4.59021C46.4285 4.59021 48.0619 4.94049 49.0648 5.64106C50.0751 6.33426 50.5803 7.42567 50.5803 8.9153V17.3664H46.6313V16.05Z" fill="white"/>
<path d="M64.9604 17.3664H53.2903V14.8111L59.8388 7.85339H53.5558V4.94418H64.8387V7.45517L58.3898 14.4019H64.9604V17.3664Z" fill="white"/>
<path d="M80.2365 17.3664H76.2322V11.2051C76.2322 10.7036 76.2063 10.2058 76.1547 9.71174C76.1031 9.21028 76.0146 8.84156 75.8892 8.60558C75.7418 8.33273 75.5242 8.13362 75.2366 8.00825C74.9564 7.88289 74.5618 7.8202 74.053 7.8202C73.6917 7.8202 73.3229 7.8792 72.9468 7.99719C72.5781 8.11518 72.1762 8.30323 71.7411 8.56133V17.3664H67.7589V4.94418H71.7411V6.31582C72.4491 5.76274 73.1275 5.33871 73.7765 5.04374C74.4328 4.74876 75.1592 4.60127 75.9556 4.60127C77.2978 4.60127 78.3449 4.99212 79.0971 5.7738C79.8567 6.55549 80.2365 7.72434 80.2365 9.28034V17.3664Z" fill="white"/>
<path d="M91.4308 14.1253V11.5369C90.8925 11.5812 90.3099 11.6438 89.6831 11.725C89.0563 11.7987 88.5806 11.8872 88.2561 11.9904C87.8579 12.1158 87.5519 12.3002 87.338 12.5435C87.1315 12.7795 87.0283 13.0929 87.0283 13.4838C87.0283 13.7419 87.0504 13.952 87.0947 14.1143C87.1389 14.2765 87.2495 14.4314 87.4265 14.5789C87.5961 14.7263 87.7989 14.837 88.0349 14.9107C88.2709 14.9771 88.6396 15.0103 89.1411 15.0103C89.5393 15.0103 89.9412 14.9291 90.3468 14.7669C90.7597 14.6047 91.1211 14.3908 91.4308 14.1253ZM91.4308 16.05C91.217 16.2123 90.9515 16.4077 90.6344 16.6363C90.3173 16.8649 90.0186 17.0456 89.7384 17.1783C89.3475 17.3553 88.9419 17.4844 88.5216 17.5655C88.1013 17.654 87.6404 17.6982 87.1389 17.6982C85.959 17.6982 84.9708 17.3332 84.1744 16.6031C83.378 15.8731 82.9797 14.9402 82.9797 13.8045C82.9797 12.8975 83.1825 12.1564 83.5881 11.5812C83.9937 11.006 84.5689 10.5524 85.3137 10.2206C86.0512 9.88873 86.9656 9.65275 88.057 9.51263C89.1484 9.37252 90.2804 9.26928 91.4529 9.20291V9.13654C91.4529 8.45072 91.1727 7.97875 90.6123 7.72065C90.0518 7.45517 89.2259 7.32243 88.1345 7.32243C87.4781 7.32243 86.7776 7.44042 86.0327 7.6764C85.2879 7.90501 84.7533 8.082 84.4288 8.20736H84.0638V5.20966C84.4841 5.09904 85.1663 4.96999 86.1102 4.8225C87.0615 4.66764 88.0128 4.59021 88.9641 4.59021C91.228 4.59021 92.8615 4.94049 93.8644 5.64106C94.8747 6.33426 95.3798 7.42567 95.3798 8.9153V17.3664H91.4308V16.05Z" fill="white"/>
</svg>
